<svg width="174" height="21" viewBox="0 0 174 21" fill="none" xmlns="http://www.w3.org/2000/svg">
<path d="M4.07364 0.48062L8.55039 12.376L13.0165 0.48062H16.5019V16H13.8159V10.8837L14.0824 4.0407L9.49903 16H7.56977L2.99709 4.05136L3.26357 10.8837V16H0.577519V0.48062H4.07364ZM23.4835 12.2907L25.8285 4.46705H28.5891L24.0058 17.7481C23.3023 19.688 22.1085 20.6579 20.4244 20.6579C20.0478 20.6579 19.6321 20.594 19.1773 20.4661V18.4622L19.6676 18.4942C20.3214 18.4942 20.8117 18.3734 21.1386 18.1318C21.4725 17.8973 21.7355 17.4994 21.9273 16.938L22.3004 15.9467L18.25 4.46705H21.0426L23.4835 12.2907ZM90.8479 10.9477C90.6915 12.6034 90.0804 13.8966 89.0145 14.8275C87.9486 15.7513 86.531 16.2132 84.7616 16.2132C83.5252 16.2132 82.4344 15.9218 81.4893 15.3391C80.5514 14.7494 79.8266 13.9144 79.3149 12.8343C78.8033 11.7542 78.5368 10.5 78.5155 9.07171V7.62209C78.5155 6.15827 78.7749 4.86854 79.2936 3.75291C79.8123 2.63727 80.5549 1.77745 81.5213 1.17345C82.4948 0.569444 83.6176 0.267441 84.8895 0.267441C86.6021 0.267441 87.9806 0.732881 89.0252 1.66376C90.0698 2.59464 90.6773 3.90924 90.8479 5.60756H88.1618C88.0339 4.49192 87.707 3.68895 87.1812 3.19864C86.6625 2.70123 85.8986 2.45252 84.8895 2.45252C83.7171 2.45252 82.8146 2.88243 82.1822 3.74225C81.5569 4.59496 81.2371 5.84916 81.2229 7.50484V8.87984C81.2229 10.5568 81.5213 11.8359 82.1182 12.7171C82.7222 13.5982 83.6034 14.0388 84.7616 14.0388C85.8204 14.0388 86.6163 13.8007 87.1492 13.3246C87.6822 12.8485 88.0197 12.0562 88.1618 10.9477H90.8479ZM99.9079 16C99.7943 15.7797 99.6948 15.4209 99.6095 14.9234C98.7852 15.7833 97.7762 16.2132 96.5824 16.2132C95.4241 16.2132 94.479 15.8828 93.7471 15.2219C93.0152 14.561 92.6492 13.7439 92.6492 12.7703C92.6492 11.541 93.104 10.5995 94.0136 9.94574C94.9302 9.28488 96.2377 8.95446 97.9361 8.95446H99.5242V8.19767C99.5242 7.60077 99.3572 7.12468 99.0233 6.76938C98.6893 6.40698 98.1812 6.22577 97.499 6.22577C96.9092 6.22577 96.426 6.375 96.0494 6.67345C95.6728 6.96479 95.4845 7.33785 95.4845 7.79264H92.8944C92.8944 7.16021 93.104 6.57041 93.5233 6.02326C93.9425 5.46899 94.511 5.03553 95.2287 4.72287C95.9535 4.41021 96.76 4.25388 97.6483 4.25388C98.9984 4.25388 100.075 4.59496 100.878 5.27713C101.681 5.9522 102.093 6.90439 102.114 8.13372V13.3353C102.114 14.3727 102.26 15.2006 102.551 15.8188V16H99.9079ZM97.062 14.1347C97.5736 14.1347 98.0533 14.0103 98.501 13.7616C98.9558 13.5129 99.2968 13.1789 99.5242 12.7597V10.5853H98.1279C97.1686 10.5853 96.4474 10.7523 95.9642 11.0862C95.4809 11.4202 95.2393 11.8928 95.2393 12.5039C95.2393 13.0013 95.4028 13.3992 95.7297 13.6977C96.0636 13.989 96.5078 14.1347 97.062 14.1347ZM108.723 12.7171L111.164 4.46705H113.839L109.842 16H107.593L103.564 4.46705H106.25L108.723 12.7171ZM120.394 16.2132C118.753 16.2132 117.421 15.698 116.397 14.6676C115.381 13.6302 114.873 12.2516 114.873 10.532V10.2122C114.873 9.06105 115.093 8.03424 115.534 7.13178C115.982 6.22222 116.607 5.51518 117.41 5.01066C118.213 4.50614 119.108 4.25388 120.096 4.25388C121.666 4.25388 122.878 4.75484 123.731 5.75678C124.59 6.75872 125.02 8.17636 125.02 10.0097V11.0543H117.484C117.563 12.0065 117.879 12.7597 118.433 13.314C118.995 13.8682 119.698 14.1453 120.544 14.1453C121.73 14.1453 122.697 13.6657 123.443 12.7064L124.839 14.0388C124.377 14.728 123.759 15.2645 122.984 15.6483C122.217 16.0249 121.354 16.2132 120.394 16.2132ZM120.085 6.33236C119.375 6.33236 118.799 6.58107 118.359 7.07849C117.925 7.5759 117.648 8.26873 117.527 9.15698H122.462V8.96512C122.405 8.09819 122.174 7.44444 121.769 7.00388C121.364 6.5562 120.803 6.33236 120.085 6.33236ZM128.655 13.2713C129.138 13.2713 129.511 13.4099 129.774 13.687C130.037 13.957 130.169 14.2981 130.169 14.7103C130.169 15.1153 130.037 15.4528 129.774 15.7229C129.511 15.9858 129.138 16.1172 128.655 16.1172C128.193 16.1172 127.827 15.9858 127.557 15.7229C127.287 15.4599 127.152 15.1224 127.152 14.7103C127.152 14.2981 127.284 13.957 127.547 13.687C127.809 13.4099 128.179 13.2713 128.655 13.2713ZM137.875 14.1453C138.522 14.1453 139.058 13.957 139.485 13.5804C139.911 13.2038 140.138 12.7384 140.167 12.1841H142.608C142.579 12.9018 142.355 13.5733 141.936 14.1986C141.517 14.8169 140.948 15.3072 140.231 15.6696C139.513 16.032 138.738 16.2132 137.907 16.2132C136.294 16.2132 135.015 15.6909 134.07 14.6463C133.125 13.6017 132.652 12.1592 132.652 10.3188V10.0523C132.652 8.29716 133.121 6.89373 134.059 5.84205C134.997 4.78327 136.276 4.25388 137.896 4.25388C139.268 4.25388 140.383 4.65536 141.243 5.45833C142.11 6.2542 142.565 7.30233 142.608 8.60271H140.167C140.138 7.94186 139.911 7.39826 139.485 6.9719C139.065 6.54554 138.529 6.33236 137.875 6.33236C137.037 6.33236 136.39 6.63792 135.935 7.24903C135.48 7.85304 135.249 8.77326 135.242 10.0097V10.4254C135.242 11.676 135.466 12.6105 135.914 13.2287C136.369 13.8398 137.022 14.1453 137.875 14.1453ZM144.078 10.1269C144.078 8.99709 144.302 7.98094 144.75 7.07849C145.198 6.16893 145.827 5.47254 146.637 4.98934C147.447 4.49903 148.378 4.25388 149.429 4.25388C150.985 4.25388 152.247 4.75484 153.213 5.75678C154.187 6.75872 154.713 8.08753 154.791 9.74322L154.801 10.3508C154.801 11.4877 154.581 12.5039 154.141 13.3992C153.707 14.2946 153.082 14.9874 152.265 15.4777C151.454 15.968 150.516 16.2132 149.451 16.2132C147.823 16.2132 146.519 15.6731 145.539 14.593C144.565 13.5058 144.078 12.0598 144.078 10.2548V10.1269ZM146.669 10.3508C146.669 11.5375 146.914 12.4683 147.404 13.1434C147.894 13.8114 148.577 14.1453 149.451 14.1453C150.325 14.1453 151.003 13.8043 151.486 13.1221C151.977 12.4399 152.222 11.4415 152.222 10.1269C152.222 8.96156 151.97 8.03779 151.465 7.35562C150.968 6.67345 150.289 6.33236 149.429 6.33236C148.584 6.33236 147.912 6.6699 147.415 7.34496C146.917 8.01292 146.669 9.01486 146.669 10.3508ZM159.427 4.46705L159.502 5.67151C160.312 4.72642 161.421 4.25388 162.828 4.25388C164.37 4.25388 165.425 4.84367 165.993 6.02326C166.832 4.84367 168.011 4.25388 169.532 4.25388C170.804 4.25388 171.749 4.60562 172.367 5.30911C172.993 6.0126 173.312 7.05006 173.327 8.42151V16H170.736V8.49612C170.736 7.76421 170.577 7.22771 170.257 6.88663C169.937 6.54554 169.408 6.375 168.669 6.375C168.079 6.375 167.596 6.53488 167.219 6.85465C166.849 7.16731 166.59 7.57946 166.441 8.09108L166.452 16H163.861V8.41085C163.826 7.05362 163.133 6.375 161.783 6.375C160.745 6.375 160.01 6.7978 159.577 7.64341V16H156.986V4.46705H159.427Z" fill="#5F5F5F"/>
<path d="M42.5097 12.1628L44.8973 0.48062H47.5727L43.9913 16H41.4118L38.4593 4.66957L35.4428 16H32.8527L29.2713 0.48062H31.9467L34.3556 12.1415L37.3188 0.48062H39.5785L42.5097 12.1628ZM52.0494 16H49.4593V4.46705H52.0494V16ZM49.2994 1.4719C49.2994 1.07397 49.4238 0.743539 49.6725 0.48062C49.9283 0.2177 50.2907 0.0862397 50.7597 0.0862397C51.2287 0.0862397 51.5911 0.2177 51.8469 0.48062C52.1027 0.743539 52.2306 1.07397 52.2306 1.4719C52.2306 1.86273 52.1027 2.1896 51.8469 2.45252C51.5911 2.70833 51.2287 2.83624 50.7597 2.83624C50.2907 2.83624 49.9283 2.70833 49.6725 2.45252C49.4238 2.1896 49.2994 1.86273 49.2994 1.4719ZM57.2829 4.46705L57.3576 5.79942C58.2103 4.76906 59.3295 4.25388 60.7151 4.25388C63.1169 4.25388 64.3391 5.62888 64.3818 8.37888V16H61.7917V8.5281C61.7917 7.79619 61.6318 7.25614 61.312 6.90795C60.9994 6.55265 60.4842 6.375 59.7665 6.375C58.7219 6.375 57.9438 6.84754 57.4322 7.79264V16H54.8421V4.46705H57.2829ZM72.1095 16.2132C70.468 16.2132 69.1357 15.698 68.1124 14.6676C67.0963 13.6302 66.5882 12.2516 66.5882 10.532V10.2122C66.5882 9.06105 66.8085 8.03424 67.249 7.13178C67.6967 6.22222 68.322 5.51518 69.125 5.01066C69.928 4.50614 70.8233 4.25388 71.811 4.25388C73.3815 4.25388 74.593 4.75484 75.4457 5.75678C76.3056 6.75872 76.7355 8.17636 76.7355 10.0097V11.0543H69.1996C69.2778 12.0065 69.594 12.7597 70.1483 13.314C70.7096 13.8682 71.4131 14.1453 72.2587 14.1453C73.4454 14.1453 74.4118 13.6657 75.1579 12.7064L76.5543 14.0388C76.0924 14.728 75.4742 15.2645 74.6996 15.6483C73.9322 16.0249 73.0688 16.2132 72.1095 16.2132ZM71.8004 6.33236C71.0898 6.33236 70.5142 6.58107 70.0736 7.07849C69.6402 7.5759 69.3631 8.26873 69.2423 9.15698H74.1773V8.96512C74.1205 8.09819 73.8895 7.44444 73.4845 7.00388C73.0795 6.5562 72.5181 6.33236 71.8004 6.33236Z" fill="#6C0000"/>
</svg>
